<svg width="220" height="82" viewBox="0 0 220 82" fill="none" xmlns="http://www.w3.org/2000/svg">
<path fill-rule="evenodd" clip-rule="evenodd" d="M175.095 57.4683C132.158 42.3712 161.378 5.87697 115.025 0.722421C102.245 -0.697944 79.8104 -0.617762 68.8301 6.78188C68.8301 6.78188 84.7594 6.85061 86.778 20.7335C86.778 20.7335 87.1792 29.0496 92.9187 32.6921C98.6581 36.3232 101.139 34.2957 104.568 37.7092C106.112 39.2441 105.188 41.6038 103.036 41.535C90.4989 41.1799 98.5487 49.6907 113.201 49.4043C120.631 49.2669 127.209 48.3734 124.461 51.8212C122.868 53.8258 132.657 52.0847 137.655 55.5898C143.735 59.8509 163.92 55.1774 175.095 57.4569V57.4683ZM122.26 7.88152C122.26 7.88152 134.53 8.32825 139.953 23.5972C139.953 23.5972 132.633 12.4519 122.26 7.88152V7.88152Z" fill="#C62727"/>
<path fill-rule="evenodd" clip-rule="evenodd" d="M81.0138 63.2528H157.73C159.98 73.4588 169.634 81.1677 181.101 81.1334H182.475L185.856 81.1219L185.819 72.1645L182.536 72.1759C179.922 72.1874 177.769 70.1714 177.769 67.7086C177.757 65.2459 179.897 63.2184 182.512 63.207L185.698 63.1955H185.795L185.758 54.2381L182.475 54.2495C179.861 54.261 177.709 52.245 177.696 49.7822C177.684 47.3195 179.824 45.2921 182.439 45.2806L185.722 45.2691L185.685 36.3117L182.402 36.3231H180.931C169.476 36.3575 159.882 44.1237 157.694 54.3182H81.0016C78.3872 54.3182 76.2593 56.3228 76.2593 58.7855C76.2593 61.2483 78.3751 63.2528 81.0016 63.2528H81.0138ZM185.758 54.2381L185.795 63.1955L199.39 63.1039C202.004 63.081 204.144 61.0764 204.132 58.6137C204.12 56.151 201.967 54.135 199.353 54.1464L185.758 54.2381ZM199.353 54.1464L185.758 54.2381L199.353 54.1464ZM185.698 36.3231L214.662 36.2315C217.277 36.22 219.429 38.236 219.429 40.6988C219.441 43.1615 217.301 45.189 214.687 45.189L185.722 45.2806L185.685 36.3231H185.698ZM185.831 72.1645L185.868 81.1219L214.723 81.0303C219.101 81.0188 220.852 76.437 218.322 73.5046C217.629 72.7028 216.511 72.0614 214.687 72.0728L185.831 72.1645V72.1645Z" fill="#2B2B2A"/>
<path fill-rule="evenodd" clip-rule="evenodd" d="M57.1805 70.8586H93.6235C95.034 70.8586 96.177 71.9468 96.177 73.2641C96.177 74.5928 95.0219 75.6696 93.6235 75.6696H57.1805C55.77 75.6696 54.627 74.5814 54.627 73.2641C54.627 71.9354 55.7821 70.8586 57.1805 70.8586Z" fill="#2B2B2A"/>
<path fill-rule="evenodd" clip-rule="evenodd" d="M38.2357 58.4304H53.8975C55.3081 58.4304 56.4511 59.5186 56.4511 60.8359C56.4511 62.1646 55.2959 63.2413 53.8975 63.2413H38.2357C36.8251 63.2413 35.6821 62.1532 35.6821 60.8359C35.6821 59.5072 36.8373 58.4304 38.2357 58.4304Z" fill="#2B2B2A"/>
<path fill-rule="evenodd" clip-rule="evenodd" d="M2.91147 44.6621H80.7464C82.157 44.6621 83.3 45.7503 83.3 47.0676C83.3 48.3963 82.1448 49.473 80.7464 49.473H2.91147C1.50094 49.473 0.35791 48.3848 0.35791 47.0676C0.35791 45.7388 1.5131 44.6621 2.91147 44.6621V44.6621Z" fill="#2B2B2A"/>
</svg>
