<svg width="1088" height="688" viewBox="0 0 1088 688" fill="none" xmlns="http://www.w3.org/2000/svg">
<g clip-path="url(#clip0_411_2)">
<path d="M961.81 454.442C956.54 499.592 945.59 535.842 930.56 564.752C910.56 603.272 876.35 618.792 845.79 635.032C836.959 639.716 827.778 643.708 818.33 646.972C762.72 666.272 700.48 661.152 651.59 650.962C617.3 643.809 582.492 639.408 547.5 637.802C537.52 637.352 527.53 637.129 517.53 637.132C502.11 637.152 224.46 642.422 156.86 505.562C140.17 471.802 128.73 430.562 124.62 380.292C112.99 238.172 176.91 144.832 259.36 83.822C415.33 -31.588 629.12 -26.748 782.79 91.702C885.15 170.602 980.99 290.012 961.81 454.442V454.442Z" fill="#3F3D56"/>
<path d="M930.56 564.752C910.56 603.272 883.35 628.792 852.79 645.032C843.959 649.716 834.778 653.708 825.33 656.972C769.72 676.272 707.48 671.152 658.59 660.962C624.299 653.809 589.492 649.408 554.5 647.802C544.52 647.352 534.53 647.129 524.53 647.132C509.11 647.152 493.693 647.725 478.28 648.852C378.11 656.212 224.46 642.422 156.86 505.562L326 177.962L388.95 339.581L409.04 391.171L464.41 315.191L493 275.962L623.2 425.232L660 343.962L914.78 551.881L928.99 563.471L930.56 564.752Z" fill="#F2F2F2"/>
<path opacity="0.1" d="M302 282.962L328 225.962L364 308.962L333 248.962L302 282.962Z" fill="black"/>
<path opacity="0.1" d="M554.5 647.802C544.52 647.352 534.53 647.129 524.53 647.132L409.04 391.172L554.5 647.802Z" fill="black"/>
<path opacity="0.1" d="M464.411 315.191L493 292.962L623 442.962L491 314.962L464.411 315.191Z" fill="black"/>
<path opacity="0.1" d="M852.79 645.032C843.959 649.716 834.778 653.708 825.33 656.972L623.2 425.232L852.79 645.032Z" fill="black"/>
<path d="M482 104.962C483.657 104.962 485 103.619 485 101.962C485 100.305 483.657 98.9619 482 98.9619C480.343 98.9619 479 100.305 479 101.962C479 103.619 480.343 104.962 482 104.962Z" fill="#F2F2F2"/>
<path d="M399 207.962C400.657 207.962 402 206.619 402 204.962C402 203.305 400.657 201.962 399 201.962C397.343 201.962 396 203.305 396 204.962C396 206.619 397.343 207.962 399 207.962Z" fill="#F2F2F2"/>
<path d="M602 224.962C603.105 224.962 604 224.066 604 222.962C604 221.857 603.105 220.962 602 220.962C600.895 220.962 600 221.857 600 222.962C600 224.066 600.895 224.962 602 224.962Z" fill="#F2F2F2"/>
<path d="M182 269.962C183.105 269.962 184 269.066 184 267.962C184 266.857 183.105 265.962 182 265.962C180.895 265.962 180 266.857 180 267.962C180 269.066 180.895 269.962 182 269.962Z" fill="#F2F2F2"/>
<path d="M614 100.962C615.105 100.962 616 100.066 616 98.9619C616 97.8573 615.105 96.9619 614 96.9619C612.895 96.9619 612 97.8573 612 98.9619C612 100.066 612.895 100.962 614 100.962Z" fill="#F2F2F2"/>
<path d="M738 196.962C739.105 196.962 740 196.066 740 194.962C740 193.857 739.105 192.962 738 192.962C736.895 192.962 736 193.857 736 194.962C736 196.066 736.895 196.962 738 196.962Z" fill="#F2F2F2"/>
<path d="M860 348.962C861.105 348.962 862 348.066 862 346.962C862 345.857 861.105 344.962 860 344.962C858.895 344.962 858 345.857 858 346.962C858 348.066 858.895 348.962 860 348.962Z" fill="#F2F2F2"/>
<path d="M306 121.222H303.24V118.462H301.76V121.222H299V122.7H301.76V125.459H303.24V122.7H306V121.222Z" fill="#F2F2F2"/>
<path d="M848 424.222H845.24V421.462H843.76V424.222H841V425.7H843.76V428.459H845.24V425.7H848V424.222Z" fill="#F2F2F2"/>
<path d="M1088 613.962C1088 630.531 844.443 687.962 544 687.962C243.557 687.962 0 630.531 0 613.962C0 597.393 243.557 627.962 544 627.962C844.443 627.962 1088 597.394 1088 613.962Z" fill="#3F3D56"/>
<path opacity="0.1" d="M1088 613.962C1088 630.531 844.443 687.962 544 687.962C243.557 687.962 0 630.531 0 613.962C0 597.393 243.557 627.962 544 627.962C844.443 627.962 1088 597.394 1088 613.962Z" fill="black"/>
<path d="M544 643.962C844.443 643.962 1088 630.53 1088 613.962C1088 597.393 844.443 583.962 544 583.962C243.557 583.962 0 597.393 0 613.962C0 630.53 243.557 643.962 544 643.962Z" fill="#3F3D56"/>
<path d="M568 571.962C568 605.099 553.225 595.962 535 595.962C516.775 595.962 502 605.099 502 571.962C502 538.825 535 475.962 535 475.962C535 475.962 568 538.825 568 571.962Z" fill="#C62727"/>
<path opacity="0.1" d="M550 584.641C550 599.703 543.284 595.55 535 595.55C526.716 595.55 520 599.703 520 584.641C520 569.579 535 541.005 535 541.005C535 541.005 550 569.581 550 584.641Z" fill="black"/>
<path d="M572 604.962H498C493.029 604.962 489 608.991 489 613.962C489 618.932 493.029 622.962 498 622.962H572C576.971 622.962 581 618.932 581 613.962C581 608.991 576.971 604.962 572 604.962Z" fill="#2F2E41"/>
<path d="M572 586.962H498C493.029 586.962 489 590.991 489 595.962C489 600.932 493.029 604.962 498 604.962H572C576.971 604.962 581 600.932 581 595.962C581 590.991 576.971 586.962 572 586.962Z" fill="#2F2E41"/>
<path d="M137 490.528C137 545.871 171.719 590.654 214.626 590.654Z" fill="#3F3D56"/>
<path d="M214.626 590.654C214.626 534.689 253.371 489.403 301.252 489.403Z" fill="#6C63FF"/>
<path d="M165.125 495.545C165.125 548.115 187.265 590.654 214.625 590.654Z" fill="#6C63FF"/>
<path d="M214.626 590.654C214.626 519.143 259.409 461.277 314.752 461.277Z" fill="#3F3D56"/>
<path d="M198.3 591.36C198.3 591.36 209.309 591.021 212.626 588.66C215.943 586.299 229.56 583.477 230.383 587.265C231.206 591.053 246.927 606.109 234.498 606.21C222.069 606.311 205.619 604.274 202.308 602.257C198.997 600.24 198.3 591.36 198.3 591.36Z" fill="#A8A8A8"/>
<path opacity="0.2" d="M234.716 604.89C222.287 604.99 205.837 602.954 202.526 600.937C200.004 599.401 198.999 593.889 198.663 591.346L198.295 591.36C198.295 591.36 198.995 600.239 202.304 602.26C205.613 604.281 222.065 606.313 234.494 606.213C238.082 606.184 239.321 604.908 239.253 603.013C238.755 604.155 237.386 604.868 234.716 604.89V604.89Z" fill="black"/>
<path d="M721.429 527.062C721.429 565.091 745.286 595.862 774.77 595.862Z" fill="#3F3D56"/>
<path d="M774.769 595.863C774.769 557.407 801.392 526.288 834.294 526.288Z" fill="#6C63FF"/>
<path d="M740.755 530.509C740.755 566.633 755.968 595.863 774.769 595.863Z" fill="#6C63FF"/>
<path d="M774.769 595.863C774.769 546.724 805.542 506.963 843.569 506.963Z" fill="#3F3D56"/>
<path d="M763.548 596.348C763.548 596.348 771.113 596.115 773.392 594.492C775.671 592.869 785.028 590.93 785.592 593.534C786.156 596.138 796.96 606.483 788.42 606.552C779.88 606.621 768.576 605.222 766.301 603.836C764.026 602.45 763.548 596.348 763.548 596.348Z" fill="#A8A8A8"/>
<path opacity="0.2" d="M788.574 605.645C780.034 605.714 768.73 604.315 766.455 602.929C764.722 601.873 764.032 598.086 763.801 596.339L763.548 596.349C763.548 596.349 764.027 602.449 766.303 603.836C768.579 605.223 779.882 606.621 788.422 606.552C790.887 606.532 791.739 605.652 791.692 604.352C791.349 605.14 790.409 605.63 788.574 605.645V605.645Z" fill="black"/>
<path d="M893.813 618.699C893.813 618.699 905.173 616.97 908.313 614.108C911.453 611.246 925.203 606.62 926.53 610.441C927.857 614.262 946.024 627.888 933.163 629.548C920.302 631.208 903.01 631.157 899.328 629.483C895.646 627.809 893.813 618.699 893.813 618.699V618.699Z" fill="#A8A8A8"/>
<path opacity="0.2" d="M933.228 628.154C920.368 629.813 903.075 629.763 899.393 628.089C896.593 626.814 894.858 621.231 894.193 618.639L893.814 618.7C893.814 618.7 895.647 627.809 899.33 629.483C903.013 631.157 920.305 631.208 933.165 629.548C936.877 629.069 938.001 627.592 937.694 625.642C937.319 626.888 935.991 627.798 933.228 628.154V628.154Z" fill="black"/>
<path d="M614.26 617.881C614.26 617.881 623.847 616.422 626.497 614.006C629.147 611.59 640.752 607.686 641.871 610.911C642.99 614.136 658.323 625.636 647.471 627.036C636.619 628.436 622.023 628.394 618.916 626.981C615.809 625.568 614.26 617.881 614.26 617.881V617.881Z" fill="#A8A8A8"/>
<path opacity="0.2" d="M647.524 625.856C636.671 627.256 622.076 627.214 618.969 625.801C616.602 624.725 615.142 620.013 614.579 617.825L614.259 617.876C614.259 617.876 615.806 625.563 618.914 626.976C622.022 628.389 636.614 628.432 647.469 627.031C650.602 626.631 651.55 625.38 651.291 623.731C650.977 624.788 649.856 625.556 647.524 625.856V625.856Z" fill="black"/>
<path d="M122.389 613.09C122.389 613.09 129.852 611.954 131.916 610.074C133.98 608.194 143.016 605.154 143.885 607.665C144.754 610.176 156.693 619.128 148.243 620.218C139.793 621.308 128.432 621.275 126.013 620.175C123.594 619.075 122.389 613.09 122.389 613.09Z" fill="#A8A8A8"/>
<path opacity="0.2" d="M148.285 619.302C139.836 620.392 128.474 620.359 126.055 619.259C124.213 618.421 123.076 614.753 122.638 613.05L122.389 613.09C122.389 613.09 123.589 619.074 126.013 620.175C128.437 621.276 139.794 621.308 148.243 620.218C150.682 619.903 151.42 618.933 151.219 617.652C150.973 618.47 150.1 619.068 148.285 619.302Z" fill="black"/>
<path opacity="0.1" d="M383.7 601.318C383.7 631.538 341.576 622.191 290 622.191C238.424 622.191 196.926 631.538 196.926 601.318C196.926 571.098 239.044 564.525 290.62 564.525C342.196 564.525 383.7 571.098 383.7 601.318Z" fill="black"/>
<path d="M383.7 593.881C383.7 624.101 341.576 614.754 290 614.754C238.424 614.754 196.926 624.101 196.926 593.881C196.926 563.661 239.04 557.081 290.616 557.081C342.192 557.081 383.7 563.657 383.7 593.881Z" fill="#3F3D56"/>
<path fill-rule="evenodd" clip-rule="evenodd" d="M320.836 479.556C320.477 479.556 320.122 479.485 319.791 479.348C319.459 479.211 319.158 479.009 318.904 478.756C318.651 478.502 318.449 478.201 318.312 477.869C318.175 477.538 318.104 477.183 318.104 476.824C318.034 474.697 317.139 472.681 315.61 471.202C314.081 469.723 312.036 468.896 309.909 468.896C307.781 468.896 305.736 469.723 304.207 471.202C302.678 472.681 301.784 474.697 301.713 476.824C301.713 477.548 301.425 478.243 300.913 478.756C300.4 479.268 299.706 479.556 298.981 479.556C298.256 479.556 297.562 479.268 297.049 478.756C296.537 478.243 296.249 477.548 296.249 476.824C296.28 473.221 297.733 469.777 300.291 467.24C302.849 464.704 306.306 463.281 309.909 463.281C313.511 463.281 316.968 464.704 319.526 467.24C322.084 469.777 323.537 473.221 323.568 476.824C323.568 477.548 323.28 478.243 322.768 478.756C322.256 479.268 321.561 479.556 320.836 479.556Z" fill="black"/>
<path d="M482.963 454.161L291.337 505.435C288.942 506.076 287.394 508.068 287.88 509.884L302.163 563.265C302.649 565.081 304.985 566.034 307.381 565.393L499.006 514.119C501.402 513.478 502.95 511.486 502.464 509.669L488.18 456.289C487.694 454.473 485.358 453.52 482.963 454.161Z" fill="#D8D8D8"/>
<path d="M346.284 531.314L339.049 533.25C337.851 533.571 337.077 534.567 337.32 535.475L338.788 540.96C339.031 541.869 340.199 542.345 341.397 542.025L348.632 540.089C349.829 539.768 350.603 538.772 350.36 537.864L348.892 532.378C348.649 531.47 347.481 530.994 346.284 531.314Z" fill="#4A4A4A"/>
<path d="M359.996 527.645L352.762 529.581C351.564 529.902 350.79 530.898 351.033 531.806L352.501 537.292C352.744 538.2 353.912 538.676 355.11 538.356L362.344 536.42C363.542 536.099 364.316 535.103 364.073 534.195L362.605 528.709C362.362 527.801 361.194 527.325 359.996 527.645Z" fill="#4A4A4A"/>
<path d="M373.711 523.975L366.477 525.911C365.279 526.231 364.505 527.227 364.748 528.136L366.216 533.621C366.459 534.53 367.627 535.006 368.824 534.685L376.059 532.75C377.257 532.429 378.031 531.433 377.788 530.525L376.32 525.039C376.077 524.131 374.909 523.655 373.711 523.975Z" fill="#4A4A4A"/>
<path d="M387.426 520.306L380.191 522.242C378.993 522.562 378.219 523.558 378.462 524.466L379.93 529.952C380.173 530.86 381.341 531.337 382.539 531.016L389.774 529.08C390.971 528.76 391.745 527.764 391.502 526.856L390.034 521.37C389.791 520.462 388.624 519.985 387.426 520.306Z" fill="#4A4A4A"/>
<path d="M401.138 516.637L393.904 518.573C392.706 518.893 391.932 519.889 392.175 520.797L393.643 526.283C393.886 527.191 395.054 527.668 396.251 527.347L403.486 525.412C404.684 525.091 405.458 524.095 405.215 523.187L403.747 517.701C403.504 516.793 402.336 516.316 401.138 516.637Z" fill="#4A4A4A"/>
<path d="M414.853 512.967L407.618 514.903C406.421 515.223 405.647 516.219 405.89 517.128L407.358 522.613C407.601 523.521 408.768 523.998 409.966 523.677L417.201 521.742C418.399 521.421 419.173 520.425 418.93 519.517L417.462 514.031C417.219 513.123 416.051 512.647 414.853 512.967Z" fill="#4A4A4A"/>
<path d="M428.567 509.298L421.332 511.233C420.135 511.554 419.361 512.55 419.604 513.458L421.072 518.944C421.315 519.852 422.483 520.328 423.68 520.008L430.915 518.072C432.113 517.752 432.887 516.756 432.644 515.847L431.176 510.362C430.933 509.454 429.765 508.977 428.567 509.298Z" fill="#4A4A4A"/>
<path d="M442.282 505.628L435.048 507.564C433.85 507.884 433.076 508.88 433.319 509.788L434.787 515.274C435.03 516.182 436.198 516.659 437.395 516.338L444.63 514.402C445.828 514.082 446.602 513.086 446.359 512.178L444.891 506.692C444.648 505.784 443.48 505.307 442.282 505.628Z" fill="#4A4A4A"/>
<path d="M455.995 501.959L448.76 503.895C447.562 504.215 446.789 505.211 447.032 506.119L448.499 511.605C448.742 512.513 449.91 512.99 451.108 512.669L458.343 510.733C459.54 510.413 460.314 509.417 460.071 508.509L458.604 503.023C458.361 502.115 457.193 501.638 455.995 501.959Z" fill="#4A4A4A"/>
<path fill-rule="evenodd" clip-rule="evenodd" d="M302.824 542.943L331.938 535.153C332.567 534.985 333.22 535.013 333.755 535.231C334.29 535.449 334.662 535.84 334.789 536.316L336.175 541.496C336.239 541.732 336.24 541.982 336.179 542.232C336.118 542.482 335.997 542.727 335.821 542.953C335.646 543.179 335.42 543.381 335.156 543.548C334.893 543.715 334.597 543.844 334.286 543.928L305.172 551.718C304.543 551.886 303.889 551.858 303.355 551.64C302.82 551.422 302.448 551.032 302.32 550.555L300.934 545.375C300.871 545.139 300.87 544.889 300.931 544.639C300.991 544.389 301.113 544.144 301.288 543.918C301.643 543.462 302.195 543.112 302.824 542.943V542.943ZM463.103 500.057L492.22 492.266C492.531 492.182 492.852 492.146 493.164 492.16C493.475 492.173 493.772 492.236 494.037 492.344C494.302 492.452 494.529 492.603 494.707 492.789C494.884 492.975 495.008 493.193 495.071 493.429L496.457 498.609C496.52 498.845 496.522 499.095 496.461 499.345C496.4 499.595 496.278 499.84 496.103 500.065C495.928 500.291 495.702 500.493 495.438 500.661C495.175 500.828 494.879 500.957 494.568 501.04L465.451 508.831C464.823 508.999 464.169 508.971 463.634 508.753C463.1 508.535 462.728 508.145 462.6 507.668L461.214 502.488C461.151 502.252 461.15 502.002 461.21 501.752C461.271 501.502 461.393 501.257 461.568 501.031C461.923 500.575 462.475 500.225 463.103 500.057V500.057Z" fill="#4A4A4A"/>
<path fill-rule="evenodd" clip-rule="evenodd" d="M297.206 521.946L308.32 518.972C308.948 518.805 309.601 518.833 310.136 519.051C310.67 519.269 311.042 519.66 311.169 520.136L312.555 525.314C312.682 525.791 312.555 526.314 312.201 526.77C311.847 527.226 311.296 527.577 310.667 527.745L299.553 530.719C298.924 530.887 298.271 530.859 297.736 530.641C297.201 530.423 296.829 530.033 296.702 529.556L295.316 524.378C295.189 523.901 295.316 523.377 295.67 522.921C296.025 522.465 296.577 522.115 297.206 521.946V521.946Z" fill="#4A4A4A"/>
<path d="M322.236 515.249L315.001 517.184C313.803 517.505 313.03 518.501 313.273 519.409L314.74 524.895C314.983 525.803 316.151 526.279 317.349 525.959L324.584 524.023C325.781 523.703 326.555 522.707 326.312 521.798L324.845 516.313C324.602 515.404 323.434 514.928 322.236 515.249Z" fill="#4A4A4A"/>
<path d="M335.951 511.579L328.716 513.515C327.519 513.835 326.745 514.831 326.988 515.739L328.455 521.225C328.698 522.133 329.866 522.61 331.064 522.289L338.299 520.353C339.497 520.033 340.27 519.037 340.027 518.129L338.56 512.643C338.317 511.735 337.149 511.258 335.951 511.579Z" fill="#4A4A4A"/>
<path d="M349.666 507.909L342.431 509.845C341.233 510.165 340.459 511.162 340.702 512.07L342.17 517.555C342.413 518.464 343.581 518.94 344.779 518.62L352.013 516.684C353.211 516.363 353.985 515.367 353.742 514.459L352.274 508.973C352.031 508.065 350.863 507.589 349.666 507.909Z" fill="#4A4A4A"/>
<path d="M363.38 504.239L356.146 506.175C354.948 506.496 354.174 507.492 354.417 508.4L355.885 513.885C356.128 514.794 357.296 515.27 358.494 514.95L365.728 513.014C366.926 512.693 367.7 511.697 367.457 510.789L365.989 505.303C365.746 504.395 364.578 503.919 363.38 504.239Z" fill="#4A4A4A"/>
<path d="M377.093 500.57L369.858 502.506C368.66 502.827 367.886 503.823 368.129 504.731L369.597 510.217C369.84 511.125 371.008 511.601 372.206 511.281L379.441 509.345C380.638 509.024 381.412 508.028 381.169 507.12L379.701 501.634C379.458 500.726 378.291 500.25 377.093 500.57Z" fill="#4A4A4A"/>
<path d="M390.808 496.901L383.573 498.836C382.375 499.157 381.602 500.153 381.845 501.061L383.312 506.547C383.555 507.455 384.723 507.931 385.921 507.611L393.156 505.675C394.353 505.355 395.127 504.359 394.884 503.45L393.417 497.965C393.174 497.057 392.006 496.58 390.808 496.901Z" fill="#4A4A4A"/>
<path d="M404.522 493.231L397.287 495.167C396.089 495.487 395.315 496.483 395.558 497.391L397.026 502.877C397.269 503.785 398.437 504.262 399.635 503.941L406.87 502.005C408.067 501.685 408.841 500.689 408.598 499.781L407.13 494.295C406.887 493.387 405.719 492.91 404.522 493.231Z" fill="#4A4A4A"/>
<path d="M418.234 489.562L411 491.497C409.802 491.818 409.028 492.814 409.271 493.722L410.739 499.208C410.982 500.116 412.15 500.592 413.348 500.272L420.582 498.336C421.78 498.016 422.554 497.02 422.311 496.111L420.843 490.626C420.6 489.717 419.432 489.241 418.234 489.562Z" fill="#4A4A4A"/>
<path d="M431.947 485.893L424.712 487.828C423.515 488.149 422.741 489.145 422.984 490.053L424.452 495.539C424.695 496.447 425.862 496.923 427.06 496.603L434.295 494.667C435.493 494.347 436.267 493.351 436.024 492.442L434.556 486.957C434.313 486.049 433.145 485.572 431.947 485.893Z" fill="#4A4A4A"/>
<path d="M445.662 482.223L438.427 484.159C437.229 484.479 436.455 485.475 436.698 486.383L438.166 491.869C438.409 492.777 439.577 493.254 440.775 492.933L448.009 490.997C449.207 490.677 449.981 489.681 449.738 488.773L448.27 483.287C448.027 482.379 446.859 481.902 445.662 482.223Z" fill="#4A4A4A"/>
<path d="M459.376 478.553L452.142 480.489C450.944 480.81 450.17 481.806 450.413 482.714L451.881 488.199C452.124 489.108 453.292 489.584 454.49 489.264L461.724 487.328C462.922 487.007 463.696 486.011 463.453 485.103L461.985 479.617C461.742 478.709 460.574 478.233 459.376 478.553Z" fill="#4A4A4A"/>
<path d="M473.089 474.884L465.854 476.82C464.656 477.14 463.883 478.136 464.126 479.044L465.593 484.53C465.836 485.438 467.004 485.915 468.202 485.594L475.437 483.658C476.634 483.338 477.408 482.342 477.165 481.434L475.698 475.948C475.455 475.04 474.287 474.563 473.089 474.884Z" fill="#4A4A4A"/>
<path d="M486.803 471.214L479.569 473.15C478.371 473.471 477.597 474.467 477.84 475.375L479.308 480.861C479.551 481.769 480.719 482.245 481.916 481.925L489.151 479.989C490.349 479.668 491.123 478.672 490.88 477.764L489.412 472.278C489.169 471.37 488.001 470.894 486.803 471.214Z" fill="#4A4A4A"/>
<path fill-rule="evenodd" clip-rule="evenodd" d="M486.287 470.092L475.171 473.067C474.542 473.235 473.889 473.207 473.354 472.989C472.819 472.771 472.447 472.381 472.32 471.904L470.933 466.724C470.87 466.488 470.869 466.238 470.93 465.988C470.991 465.738 471.112 465.493 471.288 465.267C471.463 465.042 471.689 464.839 471.952 464.672C472.216 464.505 472.512 464.376 472.823 464.292L483.94 461.318C484.568 461.15 485.222 461.178 485.756 461.396C486.291 461.614 486.663 462.004 486.791 462.481L488.177 467.661C488.24 467.897 488.241 468.147 488.18 468.397C488.12 468.647 487.998 468.892 487.823 469.118C487.468 469.574 486.916 469.924 486.287 470.092V470.092Z" fill="#4A4A4A"/>
<path d="M461.257 476.79L468.491 474.854C469.689 474.534 470.463 473.538 470.22 472.63L468.752 467.144C468.509 466.236 467.341 465.759 466.144 466.08L458.909 468.016C457.711 468.336 456.937 469.332 457.18 470.24L458.648 475.726C458.891 476.634 460.059 477.111 461.257 476.79Z" fill="#4A4A4A"/>
<path d="M447.542 480.46L454.777 478.524C455.974 478.203 456.748 477.207 456.505 476.299L455.037 470.813C454.794 469.905 453.627 469.429 452.429 469.749L445.194 471.685C443.996 472.006 443.222 473.002 443.465 473.91L444.933 479.396C445.176 480.304 446.344 480.78 447.542 480.46Z" fill="#4A4A4A"/>
<path d="M433.827 484.129L441.062 482.194C442.26 481.873 443.034 480.877 442.791 479.969L441.323 474.483C441.08 473.575 439.912 473.099 438.714 473.419L431.48 475.355C430.282 475.675 429.508 476.671 429.751 477.58L431.219 483.065C431.462 483.973 432.63 484.45 433.827 484.129Z" fill="#4A4A4A"/>
<path d="M420.112 487.799L427.347 485.863C428.545 485.543 429.319 484.547 429.076 483.639L427.608 478.153C427.365 477.245 426.197 476.768 424.999 477.089L417.764 479.025C416.567 479.345 415.793 480.341 416.036 481.249L417.504 486.735C417.747 487.643 418.915 488.12 420.112 487.799Z" fill="#4A4A4A"/>
<path d="M406.4 491.468L413.635 489.533C414.833 489.212 415.606 488.216 415.363 487.308L413.896 481.822C413.653 480.914 412.485 480.438 411.287 480.758L404.052 482.694C402.855 483.014 402.081 484.01 402.324 484.919L403.791 490.404C404.034 491.313 405.202 491.789 406.4 491.468Z" fill="#4A4A4A"/>
<path d="M392.685 495.138L399.92 493.203C401.117 492.882 401.891 491.886 401.648 490.978L400.181 485.492C399.938 484.584 398.77 484.108 397.572 484.428L390.337 486.364C389.139 486.684 388.366 487.68 388.609 488.589L390.076 494.074C390.319 494.982 391.487 495.459 392.685 495.138Z" fill="#4A4A4A"/>
<path d="M378.971 498.808L386.206 496.872C387.403 496.551 388.177 495.555 387.934 494.647L386.466 489.161C386.223 488.253 385.055 487.777 383.858 488.097L376.623 490.033C375.425 490.354 374.651 491.35 374.894 492.258L376.362 497.743C376.605 498.652 377.773 499.128 378.971 498.808Z" fill="#4A4A4A"/>
<path d="M365.259 502.477L372.493 500.541C373.691 500.221 374.465 499.225 374.222 498.317L372.754 492.831C372.511 491.923 371.343 491.446 370.145 491.767L362.911 493.703C361.713 494.023 360.939 495.019 361.182 495.927L362.65 501.413C362.893 502.321 364.061 502.798 365.259 502.477Z" fill="#4A4A4A"/>
<path d="M351.544 506.147L358.778 504.211C359.976 503.89 360.75 502.894 360.507 501.986L359.039 496.5C358.796 495.592 357.628 495.116 356.431 495.436L349.196 497.372C347.998 497.693 347.224 498.689 347.467 499.597L348.935 505.083C349.178 505.991 350.346 506.467 351.544 506.147Z" fill="#4A4A4A"/>
<path d="M337.829 509.816L345.064 507.88C346.261 507.56 347.035 506.564 346.792 505.656L345.324 500.17C345.081 499.262 343.913 498.785 342.716 499.106L335.481 501.042C334.283 501.362 333.509 502.358 333.752 503.266L335.22 508.752C335.463 509.66 336.631 510.137 337.829 509.816Z" fill="#4A4A4A"/>
<path d="M324.114 513.486L331.349 511.55C332.547 511.23 333.321 510.234 333.078 509.325L331.61 503.84C331.367 502.931 330.199 502.455 329.001 502.775L321.766 504.711C320.569 505.032 319.795 506.028 320.038 506.936L321.506 512.422C321.749 513.33 322.917 513.806 324.114 513.486Z" fill="#4A4A4A"/>
<path d="M310.402 517.155L317.636 515.219C318.834 514.899 319.608 513.903 319.365 512.995L317.897 507.509C317.654 506.601 316.486 506.124 315.288 506.445L308.054 508.381C306.856 508.701 306.082 509.697 306.325 510.605L307.793 516.091C308.036 516.999 309.204 517.476 310.402 517.155Z" fill="#4A4A4A"/>
<path d="M296.689 520.824L303.924 518.889C305.122 518.568 305.896 517.572 305.653 516.664L304.185 511.178C303.942 510.27 302.774 509.794 301.576 510.114L294.342 512.05C293.144 512.37 292.37 513.366 292.613 514.275L294.081 519.76C294.324 520.669 295.492 521.145 296.689 520.824Z" fill="#4A4A4A"/>
<path d="M461.257 476.79L468.491 474.854C469.689 474.534 470.463 473.538 470.22 472.63L468.752 467.144C468.509 466.236 467.341 465.759 466.144 466.08L458.909 468.016C457.711 468.336 456.937 469.332 457.18 470.24L458.648 475.726C458.891 476.634 460.059 477.111 461.257 476.79Z" fill="#4A4A4A"/>
<path d="M447.542 480.46L454.777 478.524C455.974 478.203 456.748 477.207 456.505 476.299L455.037 470.813C454.794 469.905 453.627 469.429 452.429 469.749L445.194 471.685C443.996 472.006 443.222 473.002 443.465 473.91L444.933 479.396C445.176 480.304 446.344 480.78 447.542 480.46Z" fill="#4A4A4A"/>
<path d="M433.827 484.129L441.062 482.194C442.26 481.873 443.034 480.877 442.791 479.969L441.323 474.483C441.08 473.575 439.912 473.099 438.714 473.419L431.48 475.355C430.282 475.675 429.508 476.671 429.751 477.58L431.219 483.065C431.462 483.973 432.63 484.45 433.827 484.129Z" fill="#4A4A4A"/>
<path d="M420.112 487.799L427.347 485.863C428.545 485.543 429.319 484.547 429.076 483.639L427.608 478.153C427.365 477.245 426.197 476.768 424.999 477.089L417.764 479.025C416.567 479.345 415.793 480.341 416.036 481.249L417.504 486.735C417.747 487.643 418.915 488.12 420.112 487.799Z" fill="#4A4A4A"/>
<path d="M406.4 491.468L413.635 489.533C414.833 489.212 415.606 488.216 415.363 487.308L413.896 481.822C413.653 480.914 412.485 480.438 411.287 480.758L404.052 482.694C402.855 483.014 402.081 484.01 402.324 484.919L403.791 490.404C404.034 491.313 405.202 491.789 406.4 491.468Z" fill="#4A4A4A"/>
<path d="M392.685 495.138L399.92 493.203C401.117 492.882 401.891 491.886 401.648 490.978L400.181 485.492C399.938 484.584 398.77 484.108 397.572 484.428L390.337 486.364C389.139 486.684 388.366 487.68 388.609 488.589L390.076 494.074C390.319 494.982 391.487 495.459 392.685 495.138Z" fill="#4A4A4A"/>
<path d="M378.971 498.808L386.206 496.872C387.403 496.551 388.177 495.555 387.934 494.647L386.466 489.161C386.223 488.253 385.055 487.777 383.858 488.097L376.623 490.033C375.425 490.354 374.651 491.35 374.894 492.258L376.362 497.743C376.605 498.652 377.773 499.128 378.971 498.808Z" fill="#4A4A4A"/>
<path d="M365.259 502.477L372.493 500.541C373.691 500.221 374.465 499.225 374.222 498.317L372.754 492.831C372.511 491.923 371.343 491.446 370.145 491.767L362.911 493.703C361.713 494.023 360.939 495.019 361.182 495.927L362.65 501.413C362.893 502.321 364.061 502.798 365.259 502.477Z" fill="#4A4A4A"/>
<path d="M351.544 506.147L358.778 504.211C359.976 503.89 360.75 502.894 360.507 501.986L359.039 496.5C358.796 495.592 357.628 495.116 356.431 495.436L349.196 497.372C347.998 497.693 347.224 498.689 347.467 499.597L348.935 505.083C349.178 505.991 350.346 506.467 351.544 506.147Z" fill="#4A4A4A"/>
<path d="M337.829 509.816L345.064 507.88C346.261 507.56 347.035 506.564 346.792 505.656L345.324 500.17C345.081 499.262 343.913 498.785 342.716 499.106L335.481 501.042C334.283 501.362 333.509 502.358 333.752 503.266L335.22 508.752C335.463 509.66 336.631 510.137 337.829 509.816Z" fill="#4A4A4A"/>
<path d="M324.114 513.486L331.349 511.55C332.547 511.23 333.321 510.234 333.078 509.325L331.61 503.84C331.367 502.931 330.199 502.455 329.001 502.775L321.766 504.711C320.569 505.032 319.795 506.028 320.038 506.936L321.506 512.422C321.749 513.33 322.917 513.806 324.114 513.486Z" fill="#4A4A4A"/>
<path d="M310.402 517.155L317.636 515.219C318.834 514.899 319.608 513.903 319.365 512.995L317.897 507.509C317.654 506.601 316.486 506.124 315.288 506.445L308.054 508.381C306.856 508.701 306.082 509.697 306.325 510.605L307.793 516.091C308.036 516.999 309.204 517.476 310.402 517.155Z" fill="#4A4A4A"/>
<path d="M296.689 520.824L303.924 518.889C305.122 518.568 305.896 517.572 305.653 516.664L304.185 511.178C303.942 510.27 302.774 509.794 301.576 510.114L294.342 512.05C293.144 512.37 292.37 513.366 292.613 514.275L294.081 519.76C294.324 520.669 295.492 521.145 296.689 520.824Z" fill="#4A4A4A"/>
<path fill-rule="evenodd" clip-rule="evenodd" d="M299.988 532.344L315.819 528.108C316.447 527.94 317.101 527.968 317.635 528.187C318.169 528.405 318.541 528.795 318.668 529.271L320.054 534.451C320.182 534.928 320.054 535.452 319.7 535.908C319.346 536.364 318.793 536.715 318.165 536.883L302.333 541.119C301.705 541.287 301.052 541.258 300.518 541.04C299.984 540.822 299.612 540.432 299.484 539.955L298.099 534.777C298.035 534.541 298.034 534.291 298.094 534.041C298.155 533.79 298.277 533.545 298.452 533.319C298.627 533.093 298.853 532.891 299.117 532.724C299.38 532.556 299.676 532.427 299.988 532.344V532.344Z" fill="#4A4A4A"/>
<path d="M330.162 524.27L322.927 526.205C321.73 526.526 320.956 527.522 321.199 528.43L322.667 533.916C322.91 534.824 324.078 535.3 325.275 534.98L332.51 533.044C333.708 532.724 334.482 531.728 334.239 530.819L332.771 525.334C332.528 524.425 331.36 523.949 330.162 524.27Z" fill="#4A4A4A"/>
<path d="M343.877 520.6L336.643 522.536C335.445 522.856 334.671 523.852 334.914 524.761L336.382 530.246C336.625 531.155 337.793 531.631 338.99 531.31L346.225 529.375C347.423 529.054 348.197 528.058 347.954 527.15L346.486 521.664C346.243 520.756 345.075 520.28 343.877 520.6Z" fill="#4A4A4A"/>
<path d="M357.59 516.931L350.355 518.866C349.157 519.187 348.384 520.183 348.627 521.091L350.094 526.577C350.337 527.485 351.505 527.962 352.703 527.641L359.938 525.705C361.135 525.385 361.909 524.389 361.666 523.481L360.199 517.995C359.956 517.087 358.788 516.61 357.59 516.931Z" fill="#4A4A4A"/>
<path d="M371.304 513.261L364.069 515.197C362.872 515.518 362.098 516.514 362.341 517.422L363.808 522.908C364.051 523.816 365.219 524.292 366.417 523.972L373.652 522.036C374.85 521.716 375.623 520.72 375.38 519.811L373.913 514.326C373.67 513.417 372.502 512.941 371.304 513.261Z" fill="#4A4A4A"/>
<path d="M385.019 509.591L377.784 511.527C376.586 511.848 375.812 512.844 376.055 513.752L377.523 519.238C377.766 520.146 378.934 520.622 380.132 520.302L387.366 518.366C388.564 518.045 389.338 517.049 389.095 516.141L387.627 510.655C387.384 509.747 386.216 509.271 385.019 509.591Z" fill="#4A4A4A"/>
<path d="M398.733 505.922L391.499 507.858C390.301 508.178 389.527 509.174 389.77 510.082L391.238 515.568C391.481 516.476 392.649 516.953 393.847 516.632L401.081 514.696C402.279 514.376 403.053 513.38 402.81 512.472L401.342 506.986C401.099 506.078 399.931 505.601 398.733 505.922Z" fill="#4A4A4A"/>
<path d="M412.446 502.252L405.211 504.188C404.014 504.509 403.24 505.505 403.483 506.413L404.951 511.899C405.194 512.807 406.362 513.283 407.559 512.963L414.794 511.027C415.992 510.706 416.766 509.71 416.523 508.802L415.055 503.317C414.812 502.408 413.644 501.932 412.446 502.252Z" fill="#4A4A4A"/>
<path d="M426.158 498.584L418.924 500.52C417.726 500.84 416.952 501.836 417.195 502.744L418.663 508.23C418.906 509.138 420.074 509.615 421.272 509.294L428.506 507.358C429.704 507.038 430.478 506.042 430.235 505.134L428.767 499.648C428.524 498.74 427.356 498.263 426.158 498.584Z" fill="#4A4A4A"/>
<path d="M439.873 494.914L432.639 496.85C431.441 497.17 430.667 498.166 430.91 499.074L432.378 504.56C432.621 505.468 433.789 505.945 434.986 505.624L442.221 503.688C443.419 503.368 444.193 502.372 443.95 501.464L442.482 495.978C442.239 495.07 441.071 494.593 439.873 494.914Z" fill="#4A4A4A"/>
<path d="M453.586 491.245L446.351 493.18C445.153 493.501 444.379 494.497 444.622 495.405L446.09 500.891C446.333 501.799 447.501 502.275 448.699 501.955L455.934 500.019C457.131 499.699 457.905 498.703 457.662 497.794L456.194 492.309C455.951 491.401 454.783 490.924 453.586 491.245Z" fill="#4A4A4A"/>
<path d="M467.3 487.575L460.065 489.511C458.868 489.831 458.094 490.827 458.337 491.735L459.805 497.221C460.048 498.129 461.216 498.606 462.413 498.285L469.648 496.349C470.846 496.029 471.62 495.033 471.377 494.125L469.909 488.639C469.666 487.731 468.498 487.254 467.3 487.575Z" fill="#4A4A4A"/>
<path fill-rule="evenodd" clip-rule="evenodd" d="M474.411 485.673L489.388 481.665C490.016 481.498 490.669 481.527 491.203 481.745C491.736 481.963 492.108 482.353 492.235 482.829L493.621 488.009C493.748 488.485 493.622 489.009 493.268 489.464C492.915 489.92 492.364 490.271 491.736 490.44L476.757 494.448C476.446 494.531 476.125 494.567 475.813 494.554C475.502 494.54 475.205 494.478 474.94 494.37C474.675 494.262 474.448 494.11 474.27 493.924C474.093 493.738 473.969 493.521 473.906 493.285L472.52 488.106C472.457 487.87 472.455 487.62 472.516 487.37C472.576 487.12 472.698 486.875 472.873 486.649C473.049 486.423 473.275 486.22 473.538 486.053C473.802 485.886 474.098 485.756 474.409 485.673L474.411 485.673Z" fill="#4A4A4A"/>
<path d="M482.19 456.429L294.043 506.773C292.743 507.12 291.903 508.201 292.167 509.187L292.256 509.517C292.519 510.502 293.786 511.019 295.086 510.672L483.233 460.328C484.533 459.98 485.372 458.9 485.109 457.914L485.02 457.584C484.757 456.598 483.489 456.082 482.19 456.429Z" fill="#4A4A4A"/>
<path opacity="0.136" d="M305.826 504.318L298.149 506.372C297.283 506.604 296.723 507.324 296.899 507.98L296.958 508.202C297.134 508.859 297.978 509.203 298.844 508.972L306.521 506.918C307.387 506.686 307.947 505.966 307.771 505.309L307.712 505.087C307.536 504.431 306.692 504.086 305.826 504.318Z" fill="#D8D8D8"/>
<path opacity="0.136" d="M320.622 500.359L312.945 502.413C312.079 502.644 311.52 503.365 311.695 504.021L311.755 504.243C311.93 504.9 312.775 505.244 313.641 505.013L321.318 502.958C322.184 502.727 322.743 502.007 322.568 501.35L322.508 501.128C322.333 500.471 321.488 500.127 320.622 500.359Z" fill="#D8D8D8"/>
<path opacity="0.136" d="M332.008 497.312L324.331 499.366C323.465 499.598 322.905 500.318 323.081 500.974L323.14 501.196C323.316 501.853 324.161 502.197 325.027 501.966L332.704 499.911C333.57 499.68 334.129 498.96 333.953 498.303L333.894 498.081C333.718 497.424 332.874 497.08 332.008 497.312Z" fill="#D8D8D8"/>
<path opacity="0.136" d="M343.389 494.267L335.712 496.321C334.846 496.553 334.287 497.273 334.462 497.929L334.522 498.151C334.698 498.808 335.542 499.152 336.408 498.921L344.085 496.867C344.951 496.635 345.51 495.915 345.335 495.258L345.275 495.036C345.1 494.379 344.255 494.035 343.389 494.267Z" fill="#D8D8D8"/>
<path opacity="0.136" d="M354.775 491.22L347.098 493.275C346.232 493.506 345.672 494.226 345.848 494.883L345.907 495.105C346.083 495.762 346.927 496.106 347.793 495.874L355.47 493.82C356.336 493.588 356.896 492.868 356.72 492.212L356.661 491.99C356.485 491.333 355.641 490.989 354.775 491.22Z" fill="#D8D8D8"/>
<path opacity="0.136" d="M369.003 487.413L361.326 489.467C360.46 489.699 359.9 490.419 360.076 491.076L360.135 491.298C360.311 491.954 361.155 492.299 362.021 492.067L369.698 490.013C370.564 489.781 371.124 489.061 370.948 488.404L370.889 488.182C370.713 487.526 369.869 487.181 369.003 487.413Z" fill="#D8D8D8"/>
<path opacity="0.136" d="M380.385 484.368L372.708 486.422C371.842 486.654 371.282 487.374 371.458 488.03L371.517 488.252C371.693 488.909 372.537 489.254 373.403 489.022L381.08 486.968C381.946 486.736 382.506 486.016 382.33 485.359L382.271 485.137C382.095 484.481 381.251 484.136 380.385 484.368Z" fill="#D8D8D8"/>
<path opacity="0.136" d="M391.77 481.321L384.093 483.375C383.227 483.607 382.667 484.327 382.843 484.984L382.902 485.206C383.078 485.862 383.922 486.207 384.788 485.975L392.465 483.921C393.331 483.689 393.891 482.969 393.715 482.313L393.656 482.091C393.48 481.434 392.636 481.089 391.77 481.321Z" fill="#D8D8D8"/>
<path opacity="0.136" d="M403.151 478.276L395.474 480.33C394.608 480.562 394.048 481.282 394.224 481.938L394.284 482.16C394.459 482.817 395.304 483.161 396.17 482.93L403.847 480.876C404.713 480.644 405.272 479.924 405.097 479.267L405.037 479.045C404.861 478.389 404.017 478.044 403.151 478.276Z" fill="#D8D8D8"/>
<path opacity="0.136" d="M417.382 474.468L409.705 476.522C408.839 476.754 408.279 477.474 408.455 478.131L408.514 478.353C408.69 479.009 409.535 479.354 410.401 479.122L418.078 477.068C418.944 476.836 419.503 476.116 419.327 475.459L419.268 475.237C419.092 474.581 418.248 474.236 417.382 474.468Z" fill="#D8D8D8"/>
<path opacity="0.136" d="M428.763 471.423L421.086 473.477C420.22 473.709 419.66 474.429 419.836 475.086L419.895 475.308C420.071 475.964 420.915 476.309 421.781 476.077L429.458 474.023C430.324 473.791 430.884 473.071 430.708 472.414L430.649 472.192C430.473 471.536 429.629 471.191 428.763 471.423Z" fill="#D8D8D8"/>
<path opacity="0.136" d="M440.148 468.376L432.471 470.43C431.605 470.662 431.046 471.382 431.221 472.039L431.281 472.261C431.457 472.917 432.301 473.262 433.167 473.03L440.844 470.976C441.71 470.744 442.27 470.024 442.094 469.367L442.034 469.145C441.859 468.489 441.014 468.144 440.148 468.376Z" fill="#D8D8D8"/>
<path opacity="0.136" d="M454.377 464.569L446.7 466.623C445.834 466.855 445.275 467.575 445.45 468.232L445.51 468.454C445.685 469.11 446.53 469.455 447.396 469.223L455.073 467.169C455.939 466.937 456.498 466.217 456.323 465.561L456.263 465.339C456.087 464.682 455.243 464.338 454.377 464.569Z" fill="#D8D8D8"/>
<path opacity="0.136" d="M465.758 461.524L458.081 463.578C457.215 463.809 456.656 464.53 456.831 465.186L456.891 465.408C457.066 466.065 457.911 466.409 458.777 466.178L466.454 464.123C467.32 463.892 467.879 463.172 467.704 462.515L467.644 462.293C467.469 461.636 466.624 461.292 465.758 461.524Z" fill="#D8D8D8"/>
<path opacity="0.136" d="M477.144 458.477L469.467 460.532C468.601 460.763 468.041 461.483 468.217 462.14L468.276 462.362C468.452 463.019 469.296 463.363 470.162 463.131L477.839 461.077C478.705 460.846 479.265 460.125 479.089 459.469L479.03 459.247C478.854 458.59 478.01 458.246 477.144 458.477Z" fill="#D8D8D8"/>
</g>
<defs>
<clipPath id="clip0_411_2">
<rect width="1088" height="687.962" fill="white"/>
</clipPath>
</defs>
</svg>
