<svg width="1129" height="663" viewBox="0 0 1129 663" fill="none" xmlns="http://www.w3.org/2000/svg">
<g clip-path="url(#clip0_411_314)">
<path d="M321 642C498.283 642 642 498.283 642 321C642 143.717 498.283 0 321 0C143.717 0 0 143.717 0 321C0 498.283 143.717 642 321 642Z" fill="#F2F2F2"/>
<path d="M559 663C842.874 663 1073 650.688 1073 635.5C1073 620.312 842.874 608 559 608C275.126 608 45 620.312 45 635.5C45 650.688 275.126 663 559 663Z" fill="#3F3D56"/>
<path opacity="0.2" d="M558 649C812.051 649 1018 639.15 1018 627C1018 614.85 812.051 605 558 605C303.949 605 98 614.85 98 627C98 639.15 303.949 649 558 649Z" fill="black"/>
<path d="M131 152.5H971V202.5H131V152.5Z" fill="#3F3D56"/>
<path d="M131 608.83C131 611.676 131.561 614.494 132.65 617.123C133.739 619.752 135.335 622.141 137.347 624.153C139.359 626.165 141.748 627.761 144.377 628.85C147.006 629.939 149.824 630.5 152.67 630.5H949.33C955.077 630.5 960.589 628.217 964.653 624.153C968.717 620.089 971 614.577 971 608.83V177.5H131V608.83ZM949.33 117.5H152.67C146.923 117.5 141.411 119.783 137.347 123.847C133.283 127.911 131 133.423 131 139.17V177.5H971V139.17C971 133.423 968.717 127.911 964.653 123.847C960.589 119.783 955.077 117.5 949.33 117.5V117.5Z" fill="#3F3D56"/>
<path opacity="0.2" d="M949.33 117.5H152.67C146.923 117.5 141.411 119.783 137.347 123.847C133.283 127.911 131 133.423 131 139.17V177.5H971V139.17C971 133.423 968.717 127.911 964.653 123.847C960.589 119.783 955.077 117.5 949.33 117.5V117.5Z" fill="black"/>
<path d="M181 160.5C188.18 160.5 194 154.68 194 147.5C194 140.32 188.18 134.5 181 134.5C173.82 134.5 168 140.32 168 147.5C168 154.68 173.82 160.5 181 160.5Z" fill="#3F3D56"/>
<path d="M217 160.5C224.18 160.5 230 154.68 230 147.5C230 140.32 224.18 134.5 217 134.5C209.82 134.5 204 140.32 204 147.5C204 154.68 209.82 160.5 217 160.5Z" fill="#3F3D56"/>
<path d="M253 160.5C260.18 160.5 266 154.68 266 147.5C266 140.32 260.18 134.5 253 134.5C245.82 134.5 240 140.32 240 147.5C240 154.68 245.82 160.5 253 160.5Z" fill="#3F3D56"/>
<path d="M881.524 272.5H608.476C605.452 272.5 603 274.952 603 277.976V289.024C603 292.048 605.452 294.5 608.476 294.5H881.524C884.548 294.5 887 292.048 887 289.024V277.976C887 274.952 884.548 272.5 881.524 272.5Z" fill="#C62727"/>
<path d="M947.524 352.5H542.476C539.452 352.5 537 354.952 537 357.976V362.024C537 365.048 539.452 367.5 542.476 367.5H947.524C950.548 367.5 953 365.048 953 362.024V357.976C953 354.952 950.548 352.5 947.524 352.5Z" fill="#C62727"/>
<path d="M947.524 396.5H542.476C539.452 396.5 537 398.952 537 401.976V406.024C537 409.048 539.452 411.5 542.476 411.5H947.524C950.548 411.5 953 409.048 953 406.024V401.976C953 398.952 950.548 396.5 947.524 396.5Z" fill="#C62727"/>
<path d="M947.524 440.5H542.476C539.452 440.5 537 442.952 537 445.976V450.024C537 453.048 539.452 455.5 542.476 455.5H947.524C950.548 455.5 953 453.048 953 450.024V445.976C953 442.952 950.548 440.5 947.524 440.5Z" fill="#C62727"/>
<path d="M947.524 484.5H542.476C539.452 484.5 537 486.952 537 489.976V494.024C537 497.048 539.452 499.5 542.476 499.5H947.524C950.548 499.5 953 497.048 953 494.024V489.976C953 486.952 950.548 484.5 947.524 484.5Z" fill="#C62727"/>
<path d="M945.972 552.5H872.028C868.147 552.5 865 555.647 865 559.528V571.472C865 575.353 868.147 578.5 872.028 578.5H945.972C949.853 578.5 953 575.353 953 571.472V559.528C953 555.647 949.853 552.5 945.972 552.5Z" fill="#C62727"/>
<path d="M1053.1 506.116C1055.76 501.472 1057.14 496.202 1057.09 490.85C1057.09 477.053 1048.54 465.87 1038 465.87C1027.46 465.87 1018.92 477.053 1018.92 490.85C1018.87 496.202 1020.24 501.472 1022.9 506.116C1020.29 510.78 1018.92 516.037 1018.92 521.382C1018.92 526.728 1020.29 531.984 1022.9 536.648C1020.29 541.312 1018.92 546.569 1018.92 551.914C1018.92 557.26 1020.29 562.516 1022.9 567.18C1020.29 571.844 1018.92 577.101 1018.92 582.446C1018.92 587.792 1020.29 593.048 1022.9 597.712C1020.24 602.356 1018.87 607.626 1018.92 612.978C1018.92 626.775 1027.46 637.959 1038 637.959C1048.54 637.959 1057.09 626.775 1057.09 612.979C1057.14 607.627 1055.76 602.357 1053.1 597.712C1055.71 593.048 1057.09 587.792 1057.09 582.446C1057.09 577.101 1055.71 571.844 1053.1 567.18C1055.71 562.516 1057.09 557.26 1057.09 551.914C1057.09 546.569 1055.71 541.312 1053.1 536.648C1055.71 531.984 1057.09 526.728 1057.09 521.382C1057.09 516.037 1055.71 510.78 1053.1 506.116V506.116Z" fill="#3F3D56"/>
<path d="M1038 485.299C1048.54 485.299 1057.09 474.115 1057.09 460.318C1057.09 446.521 1048.54 435.337 1038 435.337C1027.46 435.337 1018.92 446.521 1018.92 460.318C1018.92 474.115 1027.46 485.299 1038 485.299Z" fill="#3F3D56"/>
<path d="M1038 454.767C1048.54 454.767 1057.09 443.583 1057.09 429.786C1057.09 415.99 1048.54 404.805 1038 404.805C1027.46 404.805 1018.92 415.99 1018.92 429.786C1018.92 443.583 1027.46 454.767 1038 454.767Z" fill="#3F3D56"/>
<path fill-rule="evenodd" clip-rule="evenodd" d="M1109.44 220.845C1112.05 217.526 1114.42 214.031 1116.54 210.384L1066.4 202.149L1120.63 202.552C1125.84 191.234 1128.67 178.972 1128.97 166.519C1129.27 154.066 1127.03 141.682 1122.38 130.126L1049.62 167.868L1116.72 118.547C1110.44 107.684 1101.98 98.2309 1091.88 90.7777C1081.78 83.3246 1070.26 78.0308 1058.02 75.2261C1045.79 72.4215 1033.11 72.1661 1020.77 74.4758C1008.44 76.7856 996.71 81.6109 986.319 88.6514C975.929 95.6918 967.1 104.796 960.382 115.398C953.664 126 949.201 137.871 947.272 150.273C945.342 162.674 945.987 175.341 949.166 187.482C952.345 199.624 957.99 210.981 965.75 220.845C961.686 226.011 958.191 231.6 955.325 237.515L1020.41 271.329L951.012 248.037C946.139 262.442 944.934 277.835 947.508 292.823C950.081 307.81 956.351 321.92 965.75 333.874C955.145 347.357 948.548 363.552 946.713 380.607C944.878 397.662 947.879 414.89 955.374 430.32C962.868 445.75 974.553 458.76 989.093 467.862C1003.63 476.964 1020.44 481.791 1037.59 481.791C1054.75 481.791 1071.56 476.964 1086.1 467.862C1100.64 458.76 1112.32 445.75 1119.81 430.32C1127.31 414.89 1130.31 397.662 1128.48 380.607C1126.64 363.552 1120.04 347.357 1109.44 333.874C1122.11 317.762 1129 297.858 1129 277.359C1129 256.86 1122.11 236.957 1109.44 220.844V220.845Z" fill="#C62727"/>
<path opacity="0.1" d="M946.188 277.36C946.157 297.864 953.05 317.777 965.75 333.874C955.145 347.357 948.548 363.552 946.713 380.607C944.878 397.662 947.88 414.89 955.374 430.32C962.869 445.75 974.554 458.759 989.093 467.861C1003.63 476.963 1020.44 481.79 1037.59 481.79C1054.75 481.79 1071.56 476.963 1086.1 467.861C1100.64 458.759 1112.32 445.75 1119.82 430.32C1127.31 414.89 1130.31 397.662 1128.48 380.607C1126.64 363.552 1120.04 347.357 1109.44 333.874C1121.69 318.321 946.189 267.1 946.189 277.359L946.188 277.36Z" fill="black"/>
<path d="M194 500.764C194 502.239 194.179 503.7 194.526 505.064C194.874 506.427 195.383 507.666 196.025 508.709C196.667 509.752 197.429 510.58 198.268 511.145C199.107 511.709 200.006 512 200.914 512H455.086C456.92 512 458.678 510.816 459.975 508.709C461.272 506.602 462 503.744 462 500.764V277.111H194V500.764ZM455.086 246H200.914C199.08 246 197.322 247.184 196.025 249.291C194.728 251.398 194 254.256 194 257.236V277.111H462V257.236C462 254.256 461.272 251.398 459.975 249.291C458.678 247.184 456.92 246 455.086 246V246Z" fill="#B7B6C7"/>
</g>
<defs>
<clipPath id="clip0_411_314">
<rect width="1129" height="663" fill="white"/>
</clipPath>
</defs>
</svg>
